<mxfile host="65bd71144e">
    <diagram id="niAdLdi80qrLJaAo3Kac" name="Page-1">
        <mxGraphModel dx="1600" dy="1184" grid="1" gridSize="10" guides="1" tooltips="1" connect="1" arrows="1" fold="1" page="1" pageScale="1" pageWidth="850" pageHeight="1100" math="0" shadow="0">
            <root>
                <mxCell id="0"/>
                <mxCell id="1" parent="0"/>
                <mxCell id="2" value="application" style="rounded=0;whiteSpace=wrap;html=1;align=left;verticalAlign=top;" parent="1" vertex="1">
                    <mxGeometry x="30" y="120" width="260" height="270" as="geometry"/>
                </mxCell>
                <mxCell id="3" value="domain" style="rounded=0;whiteSpace=wrap;html=1;align=left;verticalAlign=top;" parent="1" vertex="1">
                    <mxGeometry x="340" y="120" width="520" height="295" as="geometry"/>
                </mxCell>
                <mxCell id="4" value="infrastracture" style="rounded=0;whiteSpace=wrap;html=1;align=left;verticalAlign=top;" parent="1" vertex="1">
                    <mxGeometry x="340" y="475" width="520" height="160" as="geometry"/>
                </mxCell>
                <mxCell id="10" value="model" style="rounded=0;whiteSpace=wrap;html=1;align=left;verticalAlign=top;" parent="1" vertex="1">
                    <mxGeometry x="420" y="165" width="410" height="110" as="geometry"/>
                </mxCell>
                <mxCell id="7" value="GoogleCalender&lt;div&gt;fetch()&lt;/div&gt;" style="rounded=0;whiteSpace=wrap;html=1;" parent="1" vertex="1">
                    <mxGeometry x="520" y="535" width="170" height="60" as="geometry"/>
                </mxCell>
                <mxCell id="8" value="backend" style="rounded=0;whiteSpace=wrap;html=1;" parent="1" vertex="1">
                    <mxGeometry x="20" width="120" height="60" as="geometry"/>
                </mxCell>
                <mxCell id="11" value="service" style="rounded=0;whiteSpace=wrap;html=1;align=left;verticalAlign=top;" parent="1" vertex="1">
                    <mxGeometry x="420" y="285" width="410" height="90" as="geometry"/>
                </mxCell>
                <mxCell id="16" style="edgeStyle=none;html=1;entryX=0.5;entryY=1;entryDx=0;entryDy=0;" parent="1" source="12" target="14" edge="1">
                    <mxGeometry relative="1" as="geometry"/>
                </mxCell>
                <mxCell id="17" style="edgeStyle=none;html=1;entryX=0.5;entryY=1;entryDx=0;entryDy=0;" parent="1" source="12" target="6" edge="1">
                    <mxGeometry relative="1" as="geometry"/>
                </mxCell>
                <mxCell id="12" value="TimeCardService:&lt;div&gt;create()&lt;/div&gt;&lt;div&gt;edit()&lt;/div&gt;" style="rounded=0;whiteSpace=wrap;html=1;" parent="1" vertex="1">
                    <mxGeometry x="490" y="305" width="170" height="50" as="geometry"/>
                </mxCell>
                <mxCell id="14" value="TimeCardModel:&lt;div&gt;&lt;font color=&quot;#000000&quot;&gt;id(str)&lt;br&gt;&lt;/font&gt;&lt;div&gt;time(datetime)&lt;/div&gt;&lt;/div&gt;&lt;div&gt;text(str)&lt;/div&gt;" style="rounded=0;whiteSpace=wrap;html=1;" parent="1" vertex="1">
                    <mxGeometry x="490" y="190" width="130" height="60" as="geometry"/>
                </mxCell>
                <mxCell id="19" style="edgeStyle=none;html=1;entryX=0;entryY=0.5;entryDx=0;entryDy=0;" parent="1" source="15" target="12" edge="1">
                    <mxGeometry relative="1" as="geometry"/>
                </mxCell>
                <mxCell id="20" style="edgeStyle=none;html=1;entryX=0;entryY=0.5;entryDx=0;entryDy=0;" parent="1" source="15" target="7" edge="1">
                    <mxGeometry relative="1" as="geometry">
                        <mxPoint x="820" y="565" as="targetPoint"/>
                    </mxGeometry>
                </mxCell>
                <mxCell id="15" value="TimeCardService:&lt;div&gt;create()&lt;/div&gt;" style="rounded=0;whiteSpace=wrap;html=1;" parent="1" vertex="1">
                    <mxGeometry x="75" y="235" width="170" height="50" as="geometry"/>
                </mxCell>
                <mxCell id="6" value="GoogleCalenderInterface:&lt;div&gt;fetch()&lt;/div&gt;" style="rounded=0;whiteSpace=wrap;html=1;" parent="1" vertex="1">
                    <mxGeometry x="640" y="190" width="150" height="60" as="geometry"/>
                </mxCell>
                <mxCell id="13" style="edgeStyle=none;html=1;entryX=0.5;entryY=1;entryDx=0;entryDy=0;" parent="1" source="7" target="6" edge="1">
                    <mxGeometry relative="1" as="geometry"/>
                </mxCell>
            </root>
        </mxGraphModel>
    </diagram>
</mxfile>